<?xml version="1.0" encoding="utf-8"?>
<!-- Generator: Adobe Illustrator 20.1.0, SVG Export Plug-In . SVG Version: 6.00 Build 0)  -->
<svg version="1.1" id="Layer_1" xmlns="http://www.w3.org/2000/svg" xmlns:xlink="http://www.w3.org/1999/xlink" x="0px" y="0px"
	 viewBox="0 0 130 130" style="enable-background:new 0 0 130 130;" xml:space="preserve">
<style type="text/css">
	.st0{fill:#FFFFFF;}
	.st1{fill:#e7e7e7;}
</style>
<g>
	<path class="st0" d="M-28.6,167.3c0.7,0.9,0.4,0.5,1.1,1.4"/>
</g>
<g>
	<rect x="19" y="19" transform="matrix(0.7071 -0.7071 0.7071 0.7071 -26.9239 65)" class="st1" width="91.9" height="91.9"/>
	<path class="st0" d="M12.2,77.2C24.4,66.1,36.5,58,51.3,50.4c16.7-9,34.2-15.7,51.8-22C71,32.8,35.2,54.1,10,75"/>
	<path class="st0" d="M89.4,32.4L89.4,32.4c1.2,3-0.2,6.5-3.3,7.8L48.9,56.6c-3.1,1.4-6.6,0-7.8-2.9l0,0c-1.2-3,0.2-6.5,3.3-7.8
		l37.2-16.4C84.6,28.1,88.1,29.4,89.4,32.4z"/>
	<path class="st0" d="M24.4,89.4c8.8-6.7,16.9-11.7,26.8-16.7c16.7-9,34.2-15.7,51.8-22c-27,3.6-56.4,19.3-80.5,36.9"/>
	<path class="st0" d="M89.4,54.6L89.4,54.6c1.2,3-0.2,6.5-3.3,7.8L48.9,78.8c-3.1,1.4-6.6,0-7.8-2.9l0,0c-1.2-3,0.2-6.5,3.3-7.8
		l37.2-16.4C84.6,50.3,88.1,51.7,89.4,54.6z"/>
	<path class="st0" d="M37.7,102.7c4.7-3,8.6-5.1,13.6-7.7c16.7-9,34.2-15.7,51.8-22C81,76,57.4,87,35.9,100.9"/>
	<path class="st0" d="M89.4,76.9L89.4,76.9c1.2,3-0.2,6.5-3.3,7.8l-37.2,16.4c-3.1,1.4-6.6,0-7.8-2.9l0,0c-1.2-3,0.2-6.5,3.3-7.8
		L81.5,74C84.6,72.6,88.1,74,89.4,76.9z"/>
</g>
</svg>
