<?xml version="1.0" encoding="utf-8"?>
<!-- Generator: Adobe Illustrator 20.1.0, SVG Export Plug-In . SVG Version: 6.00 Build 0)  -->
<svg version="1.1" id="Layer_1" xmlns="http://www.w3.org/2000/svg" xmlns:xlink="http://www.w3.org/1999/xlink" x="0px" y="0px"
	 viewBox="0 0 130 130" style="enable-background:new 0 0 130 130;" xml:space="preserve">
<style type="text/css">
	.st0{fill:#F7F7F7;}
	.st1{fill:#14C862;}
	.st2{fill:none;}
</style>
<title>guest</title>
<path class="st0" d="M20,111.9C-5.9,87.1-6.8,46,18,20s66-26.8,91.9-2s26.8,66,2,91.9c-0.6,0.7-1.3,1.3-2,2"/>
<path class="st1" d="M110,111.9c-25.1,24.1-64.8,24.1-89.9,0"/>
<path class="st1" d="M92.1,46.1C92.1,62.6,80,75.9,65,75.9S37.9,62.5,37.9,46.1S50,16.3,65,16.3S92.1,29.6,92.1,46.1z"/>
<path class="st1" d="M20,111.9c0-20.6,20.3-37.2,45-37.2s45,16.7,45,37.2"/>
<path class="st1" d="M110,111.9c-14.6,6.4-29.4,17.1-49,15.4c-17.7-1.6-41-15.4-41-15.4l23.2-15.7l26.6-5.4l39.2,13.5L110,111.9"/>
<path class="st2" d="M92.1,46.1"/>
</svg>
