<svg id="Layer_1" data-name="Layer 1" xmlns="http://www.w3.org/2000/svg" viewBox="0 0 130 130"><defs><style>.cls-1{fill:#e7e7e7;}.cls-2{fill:#14c862;}.cls-3{fill:none;}</style></defs><title>guest</title><path class="cls-1" d="M20,111.94a65,65,0,1,1,89.93,0"/><path class="cls-2" d="M110,111.94a65,65,0,0,1-89.93,0"/><path class="cls-2" d="M92.07,46.06c0,16.45-12.12,29.78-27.07,29.78S37.93,62.51,37.93,46.06,50,16.28,65,16.28,92.07,29.62,92.07,46.06Z"/><path class="cls-2" d="M20,111.94c0-20.57,20.35-37.25,45-37.25s45,16.68,45,37.25"/><path class="cls-2" d="M110,111.94c-14.62,6.45-29.43,17.12-49,15.36-17.71-1.59-41-15.36-41-15.36l23.2-15.71,26.63-5.36L109,104.38l.94,7.56"/><path class="cls-3" d="M92.07,46.06"/></svg>