<?xml version="1.0" standalone="no"?>
<!DOCTYPE svg PUBLIC "-//W3C//DTD SVG 20010904//EN"
 "http://www.w3.org/TR/2001/REC-SVG-20010904/DTD/svg10.dtd">
<svg version="1.0" xmlns="http://www.w3.org/2000/svg"
 width="700.000000pt" height="700.000000pt" viewBox="0 0 700.000000 700.000000"
 preserveAspectRatio="xMidYMid meet">
<metadata>
Created by potrace 1.11, written by Peter Selinger 2001-2013
</metadata>
<g transform="translate(0.000000,700.000000) scale(0.100000,-0.100000)"
fill="#000000" stroke="none">
<path d="M1745 5250 l-1749 -1750 1750 -1750 1750 -1749 1749 1749 1750 1750
-914 914 -914 914 38 16 c20 9 43 16 51 16 7 0 16 5 19 10 3 6 13 10 21 10 13
0 167 57 219 80 17 8 17 9 -5 5 -40 -8 -78 -14 -179 -31 -52 -8 -124 -22 -160
-30 l-65 -15 -805 805 -806 806 -1750 -1750z"/>
</g>
</svg>
